<svg width="23" height="23" viewBox="0 0 15 15" fill="none" xmlns="http://www.w3.org/2000/svg">
<path d="M7.10479 14.2096C11.0287 14.2096 14.2096 11.0287 14.2096 7.10479C14.2096 3.18092 11.0287 0 7.10479 0C3.18092 0 0 3.18092 0 7.10479C0 11.0287 3.18092 14.2096 7.10479 14.2096Z" fill="#FFDD67"/>
<path d="M9.23626 11.2965C7.86267 10.1597 6.34698 10.1597 4.97339 11.2965C4.80761 11.4386 4.66552 11.2017 4.78393 10.9886C5.21022 10.1834 6.03911 9.44922 7.10483 9.44922C8.17055 9.44922 9.02312 10.1834 9.42573 10.9886C9.54414 11.178 9.40204 11.4149 9.23626 11.2965Z" fill="#664E27"/>
<path d="M1.94187 5.42334C1.58663 6.53642 2.08396 7.7916 3.19704 8.28894C4.28645 8.80995 5.56531 8.40735 6.20474 7.41268L4.57064 5.58912L1.94187 5.42334Z" fill="white"/>
<path d="M2.88925 5.6365C2.5577 6.3233 2.86557 7.15219 3.55237 7.46006C4.23916 7.79162 5.06805 7.48375 5.37593 6.79695C5.61275 6.34698 3.1024 5.18653 2.88925 5.6365" fill="#664E27"/>
<path d="M1.94189 5.42311C2.32082 5.18628 2.77079 5.06787 3.22076 5.06787C3.67073 5.06787 4.1207 5.18628 4.54698 5.37575C4.94959 5.56521 5.32851 5.8494 5.63638 6.18095C5.92057 6.53619 6.1574 6.9388 6.20477 7.38877C5.89689 7.08089 5.58902 6.82038 5.25746 6.58356C4.92591 6.34673 4.59435 6.15727 4.26279 6.01518C3.90755 5.8494 3.55231 5.73098 3.17339 5.61257C2.7471 5.54152 2.36818 5.47048 1.94189 5.42311" fill="#664E27"/>
<path d="M12.2675 5.42334C12.6227 6.53642 12.1254 7.7916 11.0123 8.28894C9.92293 8.80995 8.64407 8.40735 8.00464 7.41268L9.63874 5.58912L12.2675 5.42334Z" fill="white"/>
<path d="M11.3203 5.6365C11.6518 6.3233 11.344 7.15219 10.6572 7.46006C9.97038 7.79162 9.14149 7.48375 8.83361 6.79695C8.59679 6.34698 11.1071 5.18653 11.3203 5.6365" fill="#664E27"/>
<path d="M12.2675 5.42311C11.8886 5.18628 11.4386 5.06787 10.9886 5.06787C10.5387 5.06787 10.0887 5.18628 9.66242 5.37575C9.25982 5.56521 8.8809 5.8494 8.57302 6.18095C8.28883 6.53619 8.052 6.9388 8.00464 7.38877C8.31251 7.08089 8.62039 6.82038 8.95194 6.58356C9.2835 6.34673 9.61506 6.15727 9.94661 6.01518C10.3019 5.8494 10.6571 5.73098 11.036 5.61257C11.4623 5.54152 11.8412 5.47048 12.2675 5.42311" fill="#664E27"/>
</svg>
