<svg width="23" height="23" viewBox="0 0 15 15" fill="none" xmlns="http://www.w3.org/2000/svg">
<path d="M0 7.10479C0 11.0361 3.17347 14.2096 7.10479 14.2096C11.0361 14.2096 14.2096 11.0361 14.2096 7.10479C14.2096 3.17347 11.0361 0 7.10479 0C3.17347 0 0 3.17347 0 7.10479Z" fill="#FFDD67"/>
<path d="M11.0125 3.38661C11.0125 5.73119 14.2096 5.73119 14.2096 3.38661C14.2096 1.68147 12.6229 0 12.6229 0C12.6229 0 11.0125 1.68147 11.0125 3.38661Z" fill="#65B1EF"/>
<path d="M9.82817 9.23643C10.4822 9.23643 11.0123 8.70627 11.0123 8.0523C11.0123 7.39832 10.4822 6.86816 9.82817 6.86816C9.1742 6.86816 8.64404 7.39832 8.64404 8.0523C8.64404 8.70627 9.1742 9.23643 9.82817 9.23643Z" fill="#664E27"/>
<path d="M4.3814 9.23643C5.03537 9.23643 5.56553 8.70627 5.56553 8.0523C5.56553 7.39832 5.03537 6.86816 4.3814 6.86816C3.72742 6.86816 3.19727 7.39832 3.19727 8.0523C3.19727 8.70627 3.72742 9.23643 4.3814 9.23643Z" fill="#664E27"/>
<path d="M5.58898 4.71304C4.83113 5.35248 3.81278 5.63667 2.81811 5.44721C2.67602 5.42352 2.5576 5.92086 2.72338 5.96822C3.86015 6.18137 5.04428 5.84981 5.92053 5.11565C6.03895 4.99724 5.68371 4.61831 5.58898 4.71304ZM11.3912 5.42352C10.3965 5.5893 9.3782 5.32879 8.62035 4.68936C8.52562 4.59463 8.1467 4.97355 8.2888 5.09197C9.16505 5.84981 10.3492 6.15768 11.4859 5.94454C11.6517 5.89718 11.5333 5.39984 11.3912 5.42352" fill="#917524"/>
<path d="M8.9995 11.8413H5.21028C4.85504 11.8413 4.85504 10.894 5.21028 10.894H8.9995C9.35474 10.894 9.35474 11.8413 8.9995 11.8413Z" fill="#664E27"/>
</svg>
