<svg width="23" height="23" viewBox="0 0 15 15" fill="none" xmlns="http://www.w3.org/2000/svg">
<path d="M7.10479 14.2096C11.0287 14.2096 14.2096 11.0287 14.2096 7.10479C14.2096 3.18092 11.0287 0 7.10479 0C3.18092 0 0 3.18092 0 7.10479C0 11.0287 3.18092 14.2096 7.10479 14.2096Z" fill="#FFDD67"/>
<path d="M4.3814 7.24668C5.03537 7.24668 5.56553 6.71653 5.56553 6.06255C5.56553 5.40857 5.03537 4.87842 4.3814 4.87842C3.72742 4.87842 3.19727 5.40857 3.19727 6.06255C3.19727 6.71653 3.72742 7.24668 4.3814 7.24668Z" fill="#664E27"/>
<path d="M9.82817 7.24668C10.4822 7.24668 11.0123 6.71653 11.0123 6.06255C11.0123 5.40857 10.4822 4.87842 9.82817 4.87842C9.1742 4.87842 8.64404 5.40857 8.64404 6.06255C8.64404 6.71653 9.1742 7.24668 9.82817 7.24668Z" fill="#664E27"/>
<path d="M8.73898 10.8941H5.47078C5.11554 10.8941 5.11554 9.94678 5.47078 9.94678H8.71529C9.09422 9.94678 9.09422 10.8941 8.73898 10.8941Z" fill="#664E27"/>
</svg>
