<svg width="23" height="23" viewBox="0 0 15 15" fill="none" xmlns="http://www.w3.org/2000/svg">
<path d="M7.10479 14.2096C11.0287 14.2096 14.2096 11.0287 14.2096 7.10479C14.2096 3.18092 11.0287 0 7.10479 0C3.18092 0 0 3.18092 0 7.10479C0 11.0287 3.18092 14.2096 7.10479 14.2096Z" fill="#FFDD67"/>
<path d="M4.02599 8.99924C5.46474 8.99924 6.63107 7.8329 6.63107 6.39415C6.63107 4.9554 5.46474 3.78906 4.02599 3.78906C2.58724 3.78906 1.4209 4.9554 1.4209 6.39415C1.4209 7.8329 2.58724 8.99924 4.02599 8.99924Z" fill="white"/>
<path d="M5.21006 6.39409C5.21006 7.05721 4.68904 7.57822 4.02593 7.57822C3.36281 7.57822 2.8418 7.05721 2.8418 6.39409C2.8418 5.73098 3.36281 5.20996 4.02593 5.20996C4.68904 5.20996 5.21006 5.73098 5.21006 6.39409Z" fill="#664E27"/>
<path d="M12.7885 6.39415C12.7885 7.83879 11.6281 8.99924 10.1835 8.99924C8.73882 8.99924 7.57837 7.83879 7.57837 6.39415C7.57837 4.94951 8.73882 3.78906 10.1835 3.78906C11.6281 3.78906 12.7885 4.94951 12.7885 6.39415Z" fill="white"/>
<path d="M11.3678 6.39409C11.3678 7.05721 10.8468 7.57822 10.1836 7.57822C9.52053 7.57822 8.99951 7.05721 8.99951 6.39409C8.99951 5.73098 9.52053 5.20996 10.1836 5.20996C10.8468 5.20996 11.3678 5.73098 11.3678 6.39409Z" fill="#664E27"/>
<path d="M11.4149 3.26846C10.6571 2.62903 9.63875 2.34484 8.64408 2.5343C8.50199 2.55799 8.38357 2.06065 8.54935 2.01328C9.68612 1.80014 10.8702 2.1317 11.7465 2.86586C11.8886 2.98427 11.5097 3.36319 11.4149 3.26846M5.56534 2.48694C4.57067 2.32116 3.55232 2.58167 2.79447 3.2211C2.69974 3.31583 2.32082 2.93691 2.46292 2.81849C3.33917 2.06065 4.52331 1.75278 5.66007 1.96592C5.82585 2.01329 5.70744 2.51062 5.56534 2.48694" fill="#917524"/>
<path d="M7.10482 13.2624C8.28198 13.2624 9.23626 12.3081 9.23626 11.1309C9.23626 9.95379 8.28198 8.99951 7.10482 8.99951C5.92766 8.99951 4.97339 9.95379 4.97339 11.1309C4.97339 12.3081 5.92766 13.2624 7.10482 13.2624Z" fill="#664E27"/>
<path d="M5.68384 10.4204C5.96803 9.85207 6.48905 9.47314 7.1048 9.47314C7.72054 9.47314 8.24156 9.85207 8.52575 10.4204H5.68384Z" fill="white"/>
</svg>
