<svg width="23" height="23" viewBox="0 0 15 15" fill="none" xmlns="http://www.w3.org/2000/svg">
<path d="M7.10479 14.2096C11.0287 14.2096 14.2096 11.0287 14.2096 7.10479C14.2096 3.18092 11.0287 0 7.10479 0C3.18092 0 0 3.18092 0 7.10479C0 11.0287 3.18092 14.2096 7.10479 14.2096Z" fill="#FFDD67"/>
<path opacity="0.8" d="M11.5572 9.94693C12.6036 9.94693 13.4518 9.09869 13.4518 8.05232C13.4518 7.00596 12.6036 6.15771 11.5572 6.15771C10.5108 6.15771 9.6626 7.00596 9.6626 8.05232C9.6626 9.09869 10.5108 9.94693 11.5572 9.94693Z" fill="#FF717F"/>
<path opacity="0.8" d="M2.65242 9.94693C3.69879 9.94693 4.54703 9.09869 4.54703 8.05232C4.54703 7.00596 3.69879 6.15771 2.65242 6.15771C1.60606 6.15771 0.757812 7.00596 0.757812 8.05232C0.757812 9.09869 1.60606 9.94693 2.65242 9.94693Z" fill="#FF717F"/>
<path d="M10.0888 9.0703C8.17046 10.4202 6.03903 10.3965 4.12073 9.0703C3.88391 8.90453 3.69445 9.18872 3.83654 9.44923C4.42861 10.3965 5.58906 11.2728 7.10475 11.2728C8.62043 11.2728 9.78088 10.4202 10.3729 9.44923C10.515 9.18872 10.3256 8.90453 10.0888 9.0703" fill="#664E27"/>
<path d="M6.27586 5.8968C5.82589 4.68899 5.16277 4.07324 4.49966 4.07324C3.83655 4.07324 3.17343 4.68899 2.72346 5.8968C2.6761 6.01522 2.91292 6.22836 3.03134 6.10995C3.45762 5.65998 3.97864 5.47052 4.49966 5.47052C5.02068 5.47052 5.54169 5.65998 5.96798 6.10995C6.11008 6.22836 6.32322 6.01522 6.27586 5.8968Z" fill="#664E27"/>
<path d="M11.4624 5.8968C11.0124 4.68899 10.3493 4.07324 9.68618 4.07324C9.02307 4.07324 8.35996 4.68899 7.90999 5.8968C7.86262 6.01522 8.09945 6.22836 8.21786 6.10995C8.64415 5.65998 9.16516 5.47052 9.68618 5.47052C10.2072 5.47052 10.7282 5.65998 11.1545 6.10995C11.2729 6.22836 11.5097 6.01522 11.4624 5.8968Z" fill="#664E27"/>
</svg>
