<svg width="23" height="23" viewBox="0 0 15 15" fill="none" xmlns="http://www.w3.org/2000/svg">
<path d="M3.67078 14.0674C5.30572 14.0674 6.6311 13.9084 6.6311 13.7122C6.6311 13.516 5.30572 13.3569 3.67078 13.3569C2.03583 13.3569 0.710449 13.516 0.710449 13.7122C0.710449 13.9084 2.03583 14.0674 3.67078 14.0674Z" fill="#65B1EF"/>
<path d="M9.94671 14.2095C12.301 14.2095 14.2096 14.0187 14.2096 13.7832C14.2096 13.5478 12.301 13.3569 9.94671 13.3569C7.59239 13.3569 5.68384 13.5478 5.68384 13.7832C5.68384 14.0187 7.59239 14.2095 9.94671 14.2095Z" fill="#65B1EF"/>
<path d="M7.10479 14.2096C11.0287 14.2096 14.2096 11.0287 14.2096 7.10479C14.2096 3.18092 11.0287 0 7.10479 0C3.18092 0 0 3.18092 0 7.10479C0 11.0287 3.18092 14.2096 7.10479 14.2096Z" fill="#FFDD67"/>
<path d="M10.1124 10.4205C9.78081 9.56789 8.9756 8.99951 7.10468 8.99951C5.21007 8.99951 4.42854 9.56789 4.09698 10.4205C3.93121 10.8704 4.16803 11.6046 4.16803 11.6046C4.47591 12.5282 4.42854 12.7887 7.10468 12.7887C9.78081 12.7887 9.73345 12.5282 10.0413 11.6046C10.0413 11.6046 10.3018 10.8704 10.1124 10.4205" fill="#664E27"/>
<path d="M9.23626 10.1836C9.25994 10.1126 9.23626 10.0415 9.18889 9.99416C9.18889 9.99416 8.71524 9.47314 7.10482 9.47314C5.49441 9.47314 5.02075 9.99416 5.02075 9.99416C4.97339 10.0178 4.97339 10.1126 4.97339 10.1836L5.02075 10.3257C5.04444 10.3968 5.0918 10.4441 5.13917 10.4441H9.07048C9.11785 10.4441 9.18889 10.3968 9.18889 10.3257L9.23626 10.1836Z" fill="white"/>
<path d="M10.0651 13.8543H11.6756C13.6175 11.5097 11.3203 9.11777 11.8887 6.79688C11.344 6.79688 10.7993 7.38894 10.2783 7.38894C9.52044 9.63879 12.0071 11.5097 10.0651 13.8543ZM4.14449 13.8543H2.53407C0.592092 11.5097 2.88931 9.11777 2.32092 6.79688C2.86562 6.79688 3.41032 7.38894 3.93134 7.38894C4.68919 9.63879 2.20251 11.5097 4.14449 13.8543" fill="#65B1EF"/>
<path d="M9.16526 3.86006C9.87574 4.57054 10.8704 4.92578 11.8651 4.83105C12.0072 4.80736 12.0782 5.32838 11.9124 5.35207C10.752 5.4468 9.61523 5.04419 8.81002 4.2153C8.66792 4.09689 9.07053 3.76533 9.16526 3.86006M2.36834 4.83105C3.36301 4.92578 4.35768 4.57054 5.06816 3.86006C5.16289 3.76533 5.5655 4.09689 5.44709 4.2153C4.64188 5.04419 3.48143 5.4468 2.34466 5.35207C2.13152 5.35207 2.22625 4.83105 2.36834 4.83105" fill="#917524"/>
<path d="M8.02834 6.70216C9.02301 8.59677 11.036 8.59677 12.0307 6.70216C12.0781 6.60743 11.9597 6.56006 11.7939 6.46533C10.7992 7.24686 9.16511 7.17581 8.26517 6.46533C8.12308 6.56006 7.98098 6.60743 8.02834 6.70216ZM2.17874 6.70216C3.17341 8.59677 5.18643 8.59677 6.1811 6.70216C6.22847 6.60743 6.11005 6.56006 5.94427 6.46533C4.9496 7.24686 3.3155 7.17581 2.41556 6.46533C2.24979 6.56006 2.13137 6.60743 2.17874 6.70216" fill="#664E27"/>
</svg>
