<svg width="23" height="23" viewBox="0 0 15 15" fill="none" xmlns="http://www.w3.org/2000/svg">
<path d="M7.10479 14.2096C11.0287 14.2096 14.2096 11.0287 14.2096 7.10479C14.2096 3.18092 11.0287 0 7.10479 0C3.18092 0 0 3.18092 0 7.10479C0 11.0287 3.18092 14.2096 7.10479 14.2096Z" fill="#FFDD67"/>
<path d="M9.14152 10.5148C7.86266 9.92278 6.34697 9.92278 5.06811 10.5148C4.76023 10.6569 5.13916 11.5095 5.47071 11.3437C6.32329 10.9411 7.57847 10.799 8.7626 11.3437C9.07047 11.4858 9.47308 10.6806 9.14152 10.5148Z" fill="#664E27"/>
<path d="M12.3149 6.86776C12.3149 8.0519 11.3676 8.9992 10.1834 8.9992C8.99931 8.9992 8.052 8.0519 8.052 6.86776C8.052 5.68363 8.99931 4.73633 10.1834 4.73633C11.3676 4.73633 12.3149 5.68363 12.3149 6.86776Z" fill="white"/>
<path d="M10.1834 8.28869C10.9682 8.28869 11.6044 7.65251 11.6044 6.86773C11.6044 6.08296 10.9682 5.44678 10.1834 5.44678C9.39864 5.44678 8.76245 6.08296 8.76245 6.86773C8.76245 7.65251 9.39864 8.28869 10.1834 8.28869Z" fill="#664E27"/>
<path d="M10.5625 8.69147C10.9288 8.69147 11.2256 8.35217 11.2256 7.93363C11.2256 7.51508 10.9288 7.17578 10.5625 7.17578C10.1963 7.17578 9.89941 7.51508 9.89941 7.93363C9.89941 8.35217 10.1963 8.69147 10.5625 8.69147Z" fill="white"/>
<path d="M9.66261 7.31791C9.87189 7.31791 10.0415 7.11645 10.0415 6.86794C10.0415 6.61943 9.87189 6.41797 9.66261 6.41797C9.45334 6.41797 9.28369 6.61943 9.28369 6.86794C9.28369 7.11645 9.45334 7.31791 9.66261 7.31791Z" fill="white"/>
<path d="M6.1574 6.86776C6.1574 8.0519 5.2101 8.9992 4.02597 8.9992C2.84184 8.9992 1.89453 8.0519 1.89453 6.86776C1.89453 5.68363 2.84184 4.73633 4.02597 4.73633C5.2101 4.73633 6.1574 5.68363 6.1574 6.86776Z" fill="white"/>
<path d="M4.02594 8.28869C4.81071 8.28869 5.44689 7.65251 5.44689 6.86773C5.44689 6.08296 4.81071 5.44678 4.02594 5.44678C3.24116 5.44678 2.60498 6.08296 2.60498 6.86773C2.60498 7.65251 3.24116 8.28869 4.02594 8.28869Z" fill="#664E27"/>
<path d="M4.40506 8.69147C4.77128 8.69147 5.06817 8.35217 5.06817 7.93363C5.06817 7.51508 4.77128 7.17578 4.40506 7.17578C4.03883 7.17578 3.74194 7.51508 3.74194 7.93363C3.74194 8.35217 4.03883 8.69147 4.40506 8.69147Z" fill="white"/>
<path d="M3.5049 7.31791C3.71417 7.31791 3.88382 7.11645 3.88382 6.86794C3.88382 6.61943 3.71417 6.41797 3.5049 6.41797C3.29563 6.41797 3.12598 6.61943 3.12598 6.86794C3.12598 7.11645 3.29563 7.31791 3.5049 7.31791Z" fill="white"/>
<path d="M10.6571 8.05225C9.44925 9.66266 8.76245 11.131 8.76245 12.3388C8.76245 13.3808 9.61503 14.2097 10.6571 14.2097C11.6991 14.2097 12.5517 13.3808 12.5517 12.3388C12.5517 11.131 11.8412 9.63898 10.6571 8.05225Z" fill="#65B1EF"/>
<path d="M12.1255 4.42862C11.3676 3.78919 10.3493 3.505 9.35459 3.69446C9.21249 3.71814 9.09408 3.22081 9.25986 3.17344C10.3966 2.9603 11.5808 3.29185 12.457 4.02602C12.5991 4.14443 12.2202 4.52335 12.1255 4.42862ZM4.85489 3.64709C3.86022 3.48132 2.84187 3.74182 2.08402 4.38125C1.98929 4.47599 1.61037 4.09706 1.75247 3.97865C2.62872 3.22081 3.81286 2.91293 4.94962 3.12608C5.1154 3.17344 4.99699 3.67078 4.85489 3.64709" fill="#917524"/>
</svg>
