<svg width="9" height="6" viewBox="0 0 9 6" fill="none" xmlns="http://www.w3.org/2000/svg">
<path d="M5.02872 5.95679C4.91906 6.02333 4.82115 6.01302 4.73499 5.92585C4.64882 5.83836 4.63708 5.73639 4.69974 5.61994L5.83943 3.49904H0.469974C0.336815 3.49904 0.225274 3.45113 0.135353 3.35531C0.0451175 3.25983 0 3.14139 0 3C0 2.85861 0.0451175 2.74 0.135353 2.64419C0.225274 2.5487 0.336815 2.50096 0.469974 2.50096H5.83943L4.69974 0.380057C4.63708 0.263615 4.64882 0.161645 4.73499 0.074147C4.82115 -0.0130181 4.91906 -0.0233317 5.02872 0.0432066L8.77676 2.57582C8.92559 2.67563 9 2.81702 9 3C9 3.18298 8.92559 3.32437 8.77676 3.42418L5.02872 5.95679Z" fill="#FF7067"/>
</svg>
