<svg width="64" height="64" viewBox="0 0 64 64" fill="none" xmlns="http://www.w3.org/2000/svg">
<path d="M30.9999 56.875H27.5599L29.9599 44.875H26.9599L24.5599 56.875H20.9599C19.4999 56.875 18.2999 57.915 18.0199 59.295C17.9399 59.595 18.1799 59.875 18.4999 59.875H23.9399H26.9399H33.4399C33.7599 59.875 33.9999 59.595 33.9399 59.295C33.6599 57.915 32.4599 56.875 30.9999 56.875Z" fill="url(#paint0_linear_139_1150)"/>
<path d="M30.9999 56.875H27.5599L29.9599 44.875H26.9599L24.5599 56.875H20.9599C19.4999 56.875 18.2999 57.915 18.0199 59.295C17.9399 59.595 18.1799 59.875 18.4999 59.875H23.9399H26.9399H33.4399C33.7599 59.875 33.9999 59.595 33.9399 59.295C33.6599 57.915 32.4599 56.875 30.9999 56.875Z" fill="url(#paint1_linear_139_1150)"/>
<path d="M30.9999 56.875H27.5599L29.9599 44.875H26.9599L24.5599 56.875H20.9599C19.4999 56.875 18.2999 57.915 18.0199 59.295C17.9399 59.595 18.1799 59.875 18.4999 59.875H23.9399H26.9399H33.4399C33.7599 59.875 33.9999 59.595 33.9399 59.295C33.6599 57.915 32.4599 56.875 30.9999 56.875Z" fill="url(#paint2_radial_139_1150)"/>
<path d="M30.9999 56.875H27.5599L29.9599 44.875H26.9599L24.5599 56.875H20.9599C19.4999 56.875 18.2999 57.915 18.0199 59.295C17.9399 59.595 18.1799 59.875 18.4999 59.875H23.9399H26.9399H33.4399C33.7599 59.875 33.9999 59.595 33.9399 59.295C33.6599 57.915 32.4599 56.875 30.9999 56.875Z" fill="url(#paint3_radial_139_1150)"/>
<path d="M41.0999 56.875H37.5399L39.9399 44.875H36.9399L34.5399 56.875H30.9399C29.4799 56.875 28.2799 57.915 27.9999 59.295C27.9399 59.595 28.1799 59.875 28.4999 59.875H33.9399H36.9399H43.5599C43.8799 59.875 44.1199 59.595 44.0599 59.295C43.7799 57.915 42.5599 56.875 41.0999 56.875Z" fill="url(#paint4_linear_139_1150)"/>
<path d="M41.0999 56.875H37.5399L39.9399 44.875H36.9399L34.5399 56.875H30.9399C29.4799 56.875 28.2799 57.915 27.9999 59.295C27.9399 59.595 28.1799 59.875 28.4999 59.875H33.9399H36.9399H43.5599C43.8799 59.875 44.1199 59.595 44.0599 59.295C43.7799 57.915 42.5599 56.875 41.0999 56.875Z" fill="url(#paint5_linear_139_1150)"/>
<path d="M41.0999 56.875H37.5399L39.9399 44.875H36.9399L34.5399 56.875H30.9399C29.4799 56.875 28.2799 57.915 27.9999 59.295C27.9399 59.595 28.1799 59.875 28.4999 59.875H33.9399H36.9399H43.5599C43.8799 59.875 44.1199 59.595 44.0599 59.295C43.7799 57.915 42.5599 56.875 41.0999 56.875Z" fill="url(#paint6_radial_139_1150)"/>
<path d="M41.0999 56.875H37.5399L39.9399 44.875H36.9399L34.5399 56.875H30.9399C29.4799 56.875 28.2799 57.915 27.9999 59.295C27.9399 59.595 28.1799 59.875 28.4999 59.875H33.9399H36.9399H43.5599C43.8799 59.875 44.1199 59.595 44.0599 59.295C43.7799 57.915 42.5599 56.875 41.0999 56.875Z" fill="url(#paint7_linear_139_1150)"/>
<path d="M10.1 16.5952L4.66 20.5752C3.78 21.2152 3.78 22.5152 4.66 23.1552L8.34 25.8752L10.1 16.5952Z" fill="url(#paint8_radial_139_1150)"/>
<path d="M10.1 16.5952L4.66 20.5752C3.78 21.2152 3.78 22.5152 4.66 23.1552L8.34 25.8752L10.1 16.5952Z" fill="url(#paint9_linear_139_1150)"/>
<path d="M58.06 25.375L38.76 20.315C38.1 20.135 37.6 19.615 37.42 18.975C35.72 12.575 29.9 7.875 22.96 7.875C14.7 7.875 8 14.575 8 22.835V27.875C8 42.235 19.64 53.875 34 53.875C48.36 53.875 60 42.235 60 27.875C60 26.695 59.2 25.675 58.06 25.375Z" fill="url(#paint10_radial_139_1150)"/>
<path d="M58.06 25.375L38.76 20.315C38.1 20.135 37.6 19.615 37.42 18.975C35.72 12.575 29.9 7.875 22.96 7.875C14.7 7.875 8 14.575 8 22.835V27.875C8 42.235 19.64 53.875 34 53.875C48.36 53.875 60 42.235 60 27.875C60 26.695 59.2 25.675 58.06 25.375Z" fill="url(#paint11_radial_139_1150)"/>
<path d="M58.06 25.375L38.76 20.315C38.1 20.135 37.6 19.615 37.42 18.975C35.72 12.575 29.9 7.875 22.96 7.875C14.7 7.875 8 14.575 8 22.835V27.875C8 42.235 19.64 53.875 34 53.875C48.36 53.875 60 42.235 60 27.875C60 26.695 59.2 25.675 58.06 25.375Z" fill="url(#paint12_radial_139_1150)"/>
<path d="M58.06 25.375L38.76 20.315C38.1 20.135 37.6 19.615 37.42 18.975C35.72 12.575 29.9 7.875 22.96 7.875C14.7 7.875 8 14.575 8 22.835V27.875C8 42.235 19.64 53.875 34 53.875C48.36 53.875 60 42.235 60 27.875C60 26.695 59.2 25.675 58.06 25.375Z" fill="url(#paint13_radial_139_1150)"/>
<path d="M58.06 25.375L38.76 20.315C38.1 20.135 37.6 19.615 37.42 18.975C35.72 12.575 29.9 7.875 22.96 7.875C14.7 7.875 8 14.575 8 22.835V27.875C8 42.235 19.64 53.875 34 53.875C48.36 53.875 60 42.235 60 27.875C60 26.695 59.2 25.675 58.06 25.375Z" fill="url(#paint14_radial_139_1150)"/>
<path d="M58.06 25.375L38.76 20.315C38.1 20.135 37.6 19.615 37.42 18.975C35.72 12.575 29.9 7.875 22.96 7.875C14.7 7.875 8 14.575 8 22.835V27.875C8 42.235 19.64 53.875 34 53.875C48.36 53.875 60 42.235 60 27.875C60 26.695 59.2 25.675 58.06 25.375Z" fill="url(#paint15_radial_139_1150)"/>
<path d="M18.9297 21.9922C19.482 21.9922 19.9297 21.5445 19.9297 20.9922C19.9297 20.4399 19.482 19.9922 18.9297 19.9922C18.3774 19.9922 17.9297 20.4399 17.9297 20.9922C17.9297 21.5445 18.3774 21.9922 18.9297 21.9922Z" fill="url(#paint16_radial_139_1150)"/>
<path d="M18.9297 21.9922C19.482 21.9922 19.9297 21.5445 19.9297 20.9922C19.9297 20.4399 19.482 19.9922 18.9297 19.9922C18.3774 19.9922 17.9297 20.4399 17.9297 20.9922C17.9297 21.5445 18.3774 21.9922 18.9297 21.9922Z" fill="url(#paint17_radial_139_1150)"/>
<path d="M18.9297 21.9922C19.482 21.9922 19.9297 21.5445 19.9297 20.9922C19.9297 20.4399 19.482 19.9922 18.9297 19.9922C18.3774 19.9922 17.9297 20.4399 17.9297 20.9922C17.9297 21.5445 18.3774 21.9922 18.9297 21.9922Z" fill="url(#paint18_linear_139_1150)"/>
<path d="M42.52 47.875C50.16 47.735 56.78 42.555 58.94 35.235C59.62 32.895 60 30.435 60 27.875C60 26.795 59.32 25.835 58.34 25.455L35.06 19.375V24.855H20.1V25.675C20.1 37.775 30 47.875 42.08 47.875C42.22 47.875 42.38 47.875 42.52 47.875Z" fill="url(#paint19_linear_139_1150)"/>
<path d="M42.52 47.875C50.16 47.735 56.78 42.555 58.94 35.235C59.62 32.895 60 30.435 60 27.875C60 26.795 59.32 25.835 58.34 25.455L35.06 19.375V24.855H20.1V25.675C20.1 37.775 30 47.875 42.08 47.875C42.22 47.875 42.38 47.875 42.52 47.875Z" fill="url(#paint20_radial_139_1150)"/>
<path d="M42.52 47.875C50.16 47.735 56.78 42.555 58.94 35.235C59.62 32.895 60 30.435 60 27.875C60 26.795 59.32 25.835 58.34 25.455L35.06 19.375V24.855H20.1V25.675C20.1 37.775 30 47.875 42.08 47.875C42.22 47.875 42.38 47.875 42.52 47.875Z" fill="url(#paint21_linear_139_1150)"/>
<g filter="url(#filter0_f_139_1150)">
<path d="M34.4999 21.6875C33.6999 12.7875 28.0415 10.4167 24.7499 9.75C21.8749 26 33.156 33.017 39.25 34.125C48.875 35.875 57.25 30.625 58.3749 27.25L34.4999 21.6875Z" fill="url(#paint22_linear_139_1150)"/>
</g>
<g filter="url(#filter1_f_139_1150)">
<path d="M56.8749 28.3125C55.9166 29.5625 52.7749 32.05 47.8749 32" stroke="url(#paint23_linear_139_1150)" stroke-width="0.5" stroke-linecap="round"/>
</g>
<defs>
<filter id="filter0_f_139_1150" x="21.5392" y="7" width="39.5857" height="30.2231" filterUnits="userSpaceOnUse" color-interpolation-filters="sRGB">
<feFlood flood-opacity="0" result="BackgroundImageFix"/>
<feBlend mode="normal" in="SourceGraphic" in2="BackgroundImageFix" result="shape"/>
<feGaussianBlur stdDeviation="1.375" result="effect1_foregroundBlur_139_1150"/>
</filter>
<filter id="filter1_f_139_1150" x="46.1249" y="26.5625" width="12.5" height="7.18848" filterUnits="userSpaceOnUse" color-interpolation-filters="sRGB">
<feFlood flood-opacity="0" result="BackgroundImageFix"/>
<feBlend mode="normal" in="SourceGraphic" in2="BackgroundImageFix" result="shape"/>
<feGaussianBlur stdDeviation="0.75" result="effect1_foregroundBlur_139_1150"/>
</filter>
<linearGradient id="paint0_linear_139_1150" x1="24.5391" y1="58.4592" x2="27.9923" y2="45.4691" gradientUnits="userSpaceOnUse">
<stop stop-color="#E46D33"/>
<stop offset="1" stop-color="#DB592A"/>
</linearGradient>
<linearGradient id="paint1_linear_139_1150" x1="25.9768" y1="60.8475" x2="25.9768" y2="58.2484" gradientUnits="userSpaceOnUse">
<stop stop-color="#F15CC7"/>
<stop offset="0.828473" stop-color="#F15CC7" stop-opacity="0"/>
</linearGradient>
<radialGradient id="paint2_radial_139_1150" cx="0" cy="0" r="1" gradientUnits="userSpaceOnUse" gradientTransform="translate(30.0706 58.3411) rotate(-180) scale(4.58729 4.69891)">
<stop stop-color="#D6551C"/>
<stop offset="1" stop-color="#D6551C" stop-opacity="0"/>
</radialGradient>
<radialGradient id="paint3_radial_139_1150" cx="0" cy="0" r="1" gradientUnits="userSpaceOnUse" gradientTransform="translate(20.4686 56.4062) rotate(41.9257) scale(8.65241 9.76638)">
<stop stop-color="#F67F41"/>
<stop offset="1" stop-color="#F67F41" stop-opacity="0"/>
</radialGradient>
<linearGradient id="paint4_linear_139_1150" x1="34.5802" y1="58.4592" x2="38.0084" y2="45.4549" gradientUnits="userSpaceOnUse">
<stop stop-color="#E46D33"/>
<stop offset="1" stop-color="#DB592A"/>
</linearGradient>
<linearGradient id="paint5_linear_139_1150" x1="43.4604" y1="58.2111" x2="24.221" y2="58.2111" gradientUnits="userSpaceOnUse">
<stop stop-color="#F67F41"/>
<stop offset="1" stop-color="#F67F41" stop-opacity="0"/>
</linearGradient>
<radialGradient id="paint6_radial_139_1150" cx="0" cy="0" r="1" gradientUnits="userSpaceOnUse" gradientTransform="translate(43.0126 60.5441) rotate(-139.403) scale(4.29413 3.45551)">
<stop stop-color="#FFA56B"/>
<stop offset="1" stop-color="#FFA56B" stop-opacity="0"/>
</radialGradient>
<linearGradient id="paint7_linear_139_1150" x1="36.0299" y1="60.8475" x2="36.0299" y2="58.2484" gradientUnits="userSpaceOnUse">
<stop stop-color="#F15CC7"/>
<stop offset="0.828473" stop-color="#F15CC7" stop-opacity="0"/>
</linearGradient>
<radialGradient id="paint8_radial_139_1150" cx="0" cy="0" r="1" gradientUnits="userSpaceOnUse" gradientTransform="translate(4.875 21.9377) scale(8.0625 4.57786)">
<stop stop-color="#FD8B44"/>
<stop offset="1" stop-color="#DB7B46"/>
</radialGradient>
<linearGradient id="paint9_linear_139_1150" x1="6.48438" y1="25.0783" x2="7.05" y2="22.2658" gradientUnits="userSpaceOnUse">
<stop stop-color="#F0757C"/>
<stop offset="1" stop-color="#F0757C" stop-opacity="0"/>
</linearGradient>
<radialGradient id="paint10_radial_139_1150" cx="0" cy="0" r="1" gradientUnits="userSpaceOnUse" gradientTransform="translate(20.125 18) rotate(59.6373) scale(38.8251 56.8426)">
<stop stop-color="#FFCF38"/>
<stop offset="1" stop-color="#FFB071"/>
</radialGradient>
<radialGradient id="paint11_radial_139_1150" cx="0" cy="0" r="1" gradientUnits="userSpaceOnUse" gradientTransform="translate(34 15.75) rotate(90) scale(38.875 35.375)">
<stop offset="0.916399" stop-color="#FFA1D9" stop-opacity="0"/>
<stop offset="1" stop-color="#FFA1D9"/>
</radialGradient>
<radialGradient id="paint12_radial_139_1150" cx="0" cy="0" r="1" gradientUnits="userSpaceOnUse" gradientTransform="translate(34 55.9375) rotate(-90) scale(5.1875 12.2754)">
<stop stop-color="#FF8D31"/>
<stop offset="0.9748" stop-color="#FF8D31" stop-opacity="0"/>
</radialGradient>
<radialGradient id="paint13_radial_139_1150" cx="0" cy="0" r="1" gradientUnits="userSpaceOnUse" gradientTransform="translate(45.625 7.875) rotate(129.12) scale(26.7456 26.9267)">
<stop stop-color="#FFF463"/>
<stop offset="1" stop-color="#FFF463" stop-opacity="0"/>
</radialGradient>
<radialGradient id="paint14_radial_139_1150" cx="0" cy="0" r="1" gradientUnits="userSpaceOnUse" gradientTransform="translate(38.375 30.875) rotate(152.231) scale(31.9269 39.8973)">
<stop offset="0.837178" stop-color="#F7B168" stop-opacity="0"/>
<stop offset="1" stop-color="#F7B168"/>
</radialGradient>
<radialGradient id="paint15_radial_139_1150" cx="0" cy="0" r="1" gradientUnits="userSpaceOnUse" gradientTransform="translate(6.625 5.75) rotate(48.5323) scale(14.3462 19.6746)">
<stop offset="0.417856" stop-color="#CDB168"/>
<stop offset="0.898576" stop-color="#CDB168" stop-opacity="0"/>
</radialGradient>
<radialGradient id="paint16_radial_139_1150" cx="0" cy="0" r="1" gradientUnits="userSpaceOnUse" gradientTransform="translate(19.2266 20.6704) rotate(125.838) scale(1.38773 1.23721)">
<stop offset="0.00558659" stop-color="#433437"/>
<stop offset="1" stop-color="#3B2838"/>
</radialGradient>
<radialGradient id="paint17_radial_139_1150" cx="0" cy="0" r="1" gradientUnits="userSpaceOnUse" gradientTransform="translate(19.3034 20.7422) rotate(137.643) scale(0.71892 0.632475)">
<stop stop-color="#5C5051"/>
<stop offset="1" stop-color="#5C5051" stop-opacity="0"/>
</radialGradient>
<linearGradient id="paint18_linear_139_1150" x1="18.7331" y1="20.2067" x2="18.0456" y2="19.7692" gradientUnits="userSpaceOnUse">
<stop stop-color="#5C5051" stop-opacity="0"/>
<stop offset="1" stop-color="#5C5051"/>
</linearGradient>
<linearGradient id="paint19_linear_139_1150" x1="60" y1="56.125" x2="37.0001" y2="29.75" gradientUnits="userSpaceOnUse">
<stop stop-color="#FF8C00"/>
<stop offset="1" stop-color="#FF8C00" stop-opacity="0"/>
</linearGradient>
<radialGradient id="paint20_radial_139_1150" cx="0" cy="0" r="1" gradientUnits="userSpaceOnUse" gradientTransform="translate(52.3751 22.0625) rotate(109.213) scale(4.3683 23.8173)">
<stop stop-color="#E7A93F"/>
<stop offset="1" stop-color="#E7A93F" stop-opacity="0"/>
</radialGradient>
<linearGradient id="paint21_linear_139_1150" x1="44.3749" y1="52" x2="44.3749" y2="41.375" gradientUnits="userSpaceOnUse">
<stop stop-color="#FF946D"/>
<stop offset="1" stop-color="#FF946D" stop-opacity="0"/>
</linearGradient>
<linearGradient id="paint22_linear_139_1150" x1="31.4999" y1="-1.125" x2="58.7499" y2="43.625" gradientUnits="userSpaceOnUse">
<stop stop-color="#FFF463"/>
<stop offset="1" stop-color="#FFF463" stop-opacity="0"/>
</linearGradient>
<linearGradient id="paint23_linear_139_1150" x1="56.8749" y1="28.6875" x2="47.8749" y2="32.5" gradientUnits="userSpaceOnUse">
<stop stop-color="#FFF463"/>
<stop offset="1" stop-color="#FFF463" stop-opacity="0"/>
</linearGradient>
</defs>
</svg>
