<svg width="59" height="55" viewBox="0 0 49 45" fill="none" xmlns="http://www.w3.org/2000/svg">
<path d="M6.125 22.5V35.625C6.125 36.6563 6.52449 37.5394 7.32346 38.2744C8.12379 39.0081 9.08542 39.375 10.2083 39.375H38.7917C39.9146 39.375 40.8762 39.0081 41.6765 38.2744C42.4755 37.5394 42.875 36.6563 42.875 35.625V22.5H34.7083V31.875H14.2917V22.5H6.125ZM18.375 28.125H30.625V22.5H18.375V28.125ZM6.125 18.75H42.875V9.375C42.875 8.34375 42.4755 7.46062 41.6765 6.72562C40.8762 5.99187 39.9146 5.625 38.7917 5.625H10.2083C9.08542 5.625 8.12379 5.99187 7.32346 6.72562C6.52449 7.46062 6.125 8.34375 6.125 9.375V18.75ZM16.3333 15C15.7549 15 15.2696 14.8206 14.8776 14.4619C14.487 14.1019 14.2917 13.6562 14.2917 13.125C14.2917 12.5938 14.487 12.1481 14.8776 11.7881C15.2696 11.4294 15.7549 11.25 16.3333 11.25C16.9118 11.25 17.397 11.4294 17.789 11.7881C18.1797 12.1481 18.375 12.5938 18.375 13.125C18.375 13.6562 18.1797 14.1019 17.789 14.4619C17.397 14.8206 16.9118 15 16.3333 15ZM24.5 15C23.9215 15 23.437 14.8206 23.0463 14.4619C22.6543 14.1019 22.4583 13.6562 22.4583 13.125C22.4583 12.5938 22.6543 12.1481 23.0463 11.7881C23.437 11.4294 23.9215 11.25 24.5 11.25C25.0785 11.25 25.5637 11.4294 25.9557 11.7881C26.3463 12.1481 26.5417 12.5938 26.5417 13.125C26.5417 13.6562 26.3463 14.1019 25.9557 14.4619C25.5637 14.8206 25.0785 15 24.5 15ZM32.6667 15C32.0882 15 31.6036 14.8206 31.213 14.4619C30.821 14.1019 30.625 13.6562 30.625 13.125C30.625 12.5938 30.821 12.1481 31.213 11.7881C31.6036 11.4294 32.0882 11.25 32.6667 11.25C33.2451 11.25 33.7297 11.4294 34.1203 11.7881C34.5123 12.1481 34.7083 12.5938 34.7083 13.125C34.7083 13.6562 34.5123 14.1019 34.1203 14.4619C33.7297 14.8206 33.2451 15 32.6667 15Z" fill="black"/>
</svg>
