<svg width="49" height="45" viewBox="0 0 49 45" fill="none" xmlns="http://www.w3.org/2000/svg">
<path d="M0 5.19545L3.40773 8.325C1.44773 8.75455 0 10.35 0 12.2727V36.8182C0 39.0682 2.00455 40.9091 4.45455 40.9091H38.8882L43.3427 45L46.1491 42.4023L2.82864 2.59773L0 5.19545ZM4.45455 36.8182V12.2727H7.70636L34.4336 36.8182H4.45455ZM44.5455 8.18182H27.6627L34.9905 1.43182L33.4091 0L24.5 8.18182L15.5909 0L14.0318 1.43182L21.3373 8.18182H14.5218L18.9764 12.2727H44.5455V35.7545L48.2205 39.1295C48.7105 38.475 49 37.6773 49 36.8182V12.2727C49 10.0023 47.0177 8.18182 44.5455 8.18182Z" fill="black"/>
</svg>
